<?xml version="1.0" encoding="UTF-8" standalone="no"?><!DOCTYPE svg PUBLIC "-//W3C//DTD SVG 1.1//EN" "http://www.w3.org/Graphics/SVG/1.1/DTD/svg11.dtd"><svg width="100%" height="100%" viewBox="0 0 3184 2990" version="1.1" xmlns="http://www.w3.org/2000/svg" xmlns:xlink="http://www.w3.org/1999/xlink" xml:space="preserve" xmlns:serif="http://www.serif.com/" style="fill-rule:evenodd;clip-rule:evenodd;stroke-linejoin:round;stroke-miterlimit:2;"><rect id="Orca-intense-peach-no-frame" serif:id="Orca intense peach no frame" x="0" y="0" width="3183.29" height="2989.8" style="fill:none;"/><circle cx="1619.45" cy="1520.54" r="1279.95" style="fill:url(#_Linear1);"/><clipPath id="_clip2"><circle cx="1619.45" cy="1520.54" r="1279.95"/></clipPath><g clip-path="url(#_clip2)"><path d="M-75.275,2108.98c0,0 91.843,-778.982 147.476,-893.325c43.365,-89.127 75.04,207.266 186.323,207.266c111.284,0 379.352,-201.59 481.377,-207.266c102.024,-5.676 38.023,173.209 130.773,173.209c92.749,0 323.701,-178.885 425.726,-173.209c102.025,5.676 75.123,207.266 186.423,207.266c111.299,0 370.076,-207.266 481.376,-207.266c111.299,0 75.123,207.266 186.423,207.266c111.299,0 370.076,-207.266 481.376,-207.266c111.299,0 75.123,207.266 186.423,207.266c111.299,0 437.981,-296.402 481.376,-207.266c55.666,114.343 -147.377,893.325 -147.377,893.325l-3227.7,0Z" style="fill:url(#_Linear3);"/></g><clipPath id="_clip4"><circle cx="1619.45" cy="1520.54" r="1279.95"/></clipPath><g clip-path="url(#_clip4)"><path d="M-75.275,2337.15c0,0 91.843,-778.981 147.476,-893.324c43.365,-89.128 75.04,207.265 186.323,207.265c111.284,0 379.352,-201.589 481.377,-207.265c102.024,-5.676 38.023,173.209 130.773,173.209c92.749,0 323.701,-178.885 425.726,-173.209c102.025,5.676 75.123,207.265 186.423,207.265c111.299,0 370.076,-207.265 481.376,-207.265c111.299,0 75.123,207.265 186.423,207.265c111.299,0 370.076,-207.265 481.376,-207.265c111.299,0 75.123,207.265 186.423,207.265c111.299,0 437.981,-296.401 481.376,-207.265c55.666,114.343 -147.377,893.324 -147.377,893.324l-3227.7,0Z" style="fill:url(#_Linear5);"/></g><path d="M1538.79,2085.36c-202.429,-14.917 -986.757,133.405 -1002.04,104.267c-150.341,-286.597 -67.31,-633.318 286.948,-995.789c32.24,-32.987 33.858,-71.015 -10.744,-153.741c-57.849,-107.297 -70.973,-96.116 -135.924,-162.582c-16.079,-16.454 42.066,-94.961 222.999,-99.971c148.14,-4.103 340.53,156.499 436.809,126.174c155.195,-48.88 315.076,-109.832 453.607,-166.591c197.934,-80.943 424.864,-39.469 581.374,106.252c24.129,22.524 47.91,37.094 69.377,37.942c24.941,0.986 43.622,6.876 57.564,15.609c23.169,14.562 36.876,40.32 36.012,67.672c-0.865,27.351 -16.171,52.192 -40.213,65.263c-72.163,38.833 -225.823,111.587 -354.719,105.71c-166.324,-7.584 -63.063,279.112 -137.737,324.319c-601.523,364.161 -463.311,625.466 -463.311,625.466Z" style="fill:url(#_Radial6);"/><path d="M2442.73,1315.9c108.178,-86.938 89.423,-115.796 49.132,-124.444c-4.994,-1.072 -11.276,-0.629 -18.452,0.97c-104.473,23.015 -213.762,6.837 -307.087,-45.46c-29.273,-16.262 -55.271,-24.784 -70.441,-16.271c-59.221,33.236 -94.185,66.35 -114.413,91.376c-28.092,34.836 -62.04,64.511 -100.319,87.693c-7.131,4.512 -14.552,9.007 -22.021,13.53c-72.756,44.059 -138.043,99.406 -193.419,163.968c-9.7,11.31 -19.633,22.89 -29.433,34.316c-60.756,70.834 -112.036,149.274 -152.549,233.342c-65.924,136.796 -161.644,335.422 -161.644,335.422l-205.043,-249.868l25.242,152.459l718.995,160.904c250.449,-163.08 -151.105,69.946 259.599,-476.931c10.665,-14.201 24.733,-25.488 40.908,-32.822c-0.003,-0.007 -0.003,-0.007 -0.003,-0.007c104.538,-47.4 184.634,-136.168 221.077,-245.012c9.362,-28.263 27.568,-57.206 59.871,-83.165Z" style="fill:url(#_Linear7);"/><circle cx="2046.93" cy="1051.27" r="56.157" style="fill:url(#_Radial8);"/><path d="M2046.93,995.115c-30.994,0 -56.157,25.163 -56.157,56.157c0,30.994 25.163,56.158 56.157,56.158c30.994,0 56.157,-25.164 56.157,-56.158c0,-30.994 -25.163,-56.157 -56.157,-56.157Zm0,10.417c25.245,0 45.74,20.496 45.74,45.74c0,25.245 -20.495,45.741 -45.74,45.741c-25.245,0 -45.741,-20.496 -45.741,-45.741c0,-25.244 20.496,-45.74 45.741,-45.74Z" style="fill:#c0c0c0;"/><circle cx="2023.77" cy="1034.5" r="23.906" style="fill:#fff;"/><path d="M1812.33,899.558c-63.756,6.398 -235.858,80.84 -229.46,144.596c6.398,63.756 188.888,92.838 252.644,86.441c63.756,-6.398 140.163,-82.38 135.205,-127.467c-4.958,-45.087 -94.633,-109.968 -158.389,-103.57Z" style="fill:#f6f6f6;"/><clipPath id="_clip9"><circle cx="1619.45" cy="1520.54" r="1279.95"/></clipPath><g clip-path="url(#_clip9)"><path d="M-75.275,2609.83c0,0 91.843,-778.981 147.476,-893.325c43.365,-89.127 75.04,207.266 186.323,207.266c111.284,0 379.352,-201.589 481.377,-207.266c102.024,-5.676 38.023,173.209 130.773,173.209c92.749,0 323.701,-178.885 425.726,-173.209c102.025,5.677 75.123,207.266 186.423,207.266c111.299,0 370.076,-207.266 481.376,-207.266c111.299,0 75.123,207.266 186.423,207.266c111.299,0 370.076,-207.266 481.376,-207.266c111.299,0 75.123,207.266 186.423,207.266c111.299,0 437.981,-296.401 481.376,-207.266c55.666,114.344 -147.377,893.325 -147.377,893.325l-3227.7,0Z" style="fill:url(#_Linear10);"/></g><clipPath id="_clip11"><circle cx="1619.45" cy="1520.54" r="1279.95"/></clipPath><g clip-path="url(#_clip11)"><path d="M-75.34,2890.41c0,0 91.843,-778.981 147.476,-893.324c43.365,-89.128 75.04,207.265 186.323,207.265c111.284,0 379.352,-201.589 481.376,-207.265c102.025,-5.677 38.024,173.208 130.773,173.208c92.75,0 323.702,-178.885 425.727,-173.208c102.024,5.676 75.123,207.265 186.423,207.265c111.299,0 370.076,-207.265 481.376,-207.265c111.299,0 75.123,207.265 186.422,207.265c111.3,0 370.077,-207.265 481.377,-207.265c111.299,0 75.123,207.265 186.422,207.265c111.3,0 437.982,-296.401 481.377,-207.265c55.666,114.343 -147.377,893.324 -147.377,893.324l-3227.7,0Z" style="fill:url(#_Linear12);"/></g><defs><linearGradient id="_Linear1" x1="0" y1="0" x2="1" y2="0" gradientUnits="userSpaceOnUse" gradientTransform="matrix(2.47963,-1299.37,1299.37,2.47963,1619.45,1520.54)"><stop offset="0" style="stop-color:#d4252c;stop-opacity:1"/><stop offset="0.52" style="stop-color:#f4830c;stop-opacity:1"/><stop offset="1" style="stop-color:#ffa500;stop-opacity:1"/></linearGradient><linearGradient id="_Linear3" x1="0" y1="0" x2="1" y2="0" gradientUnits="userSpaceOnUse" gradientTransform="matrix(3.74316e-14,-342.93,91.6956,3.14976e-15,1669.22,1616)"><stop offset="0" style="stop-color:#40879d;stop-opacity:1"/><stop offset="1" style="stop-color:#98ddf0;stop-opacity:1"/></linearGradient><linearGradient id="_Linear5" x1="0" y1="0" x2="1" y2="0" gradientUnits="userSpaceOnUse" gradientTransform="matrix(3.74316e-14,-342.93,91.6956,3.14976e-15,1669.22,1844.17)"><stop offset="0" style="stop-color:#40879d;stop-opacity:1"/><stop offset="1" style="stop-color:#98ddf0;stop-opacity:1"/></linearGradient><radialGradient id="_Radial6" cx="0" cy="0" r="1" gradientUnits="userSpaceOnUse" gradientTransform="matrix(-1157,-1406.94,-2100.72,1698.43,1139.54,2307.44)"><stop offset="0" style="stop-color:#212121;stop-opacity:1"/><stop offset="0.57" style="stop-color:#373737;stop-opacity:1"/><stop offset="0.79" style="stop-color:#656565;stop-opacity:1"/><stop offset="1" style="stop-color:#919191;stop-opacity:1"/></radialGradient><linearGradient id="_Linear7" x1="0" y1="0" x2="1" y2="0" gradientUnits="userSpaceOnUse" gradientTransform="matrix(-1.62524,1091.71,1091.71,1.62524,2523.08,962.294)"><stop offset="0" style="stop-color:#fff;stop-opacity:1"/><stop offset="0.52" style="stop-color:#dadbdc;stop-opacity:1"/><stop offset="1" style="stop-color:#606269;stop-opacity:1"/></linearGradient><radialGradient id="_Radial8" cx="0" cy="0" r="1" gradientUnits="userSpaceOnUse" gradientTransform="matrix(-56.1571,0,0,56.1571,2046.93,1051.27)"><stop offset="0" style="stop-color:#021c60;stop-opacity:1"/><stop offset="1" style="stop-color:#030719;stop-opacity:1"/></radialGradient><linearGradient id="_Linear10" x1="0" y1="0" x2="1" y2="0" gradientUnits="userSpaceOnUse" gradientTransform="matrix(3.74316e-14,-342.93,91.6956,3.14976e-15,1669.22,2116.85)"><stop offset="0" style="stop-color:#40879d;stop-opacity:1"/><stop offset="1" style="stop-color:#98ddf0;stop-opacity:1"/></linearGradient><linearGradient id="_Linear12" x1="0" y1="0" x2="1" y2="0" gradientUnits="userSpaceOnUse" gradientTransform="matrix(-30.3944,-725.244,193.922,-8.12713,1699.54,2779.75)"><stop offset="0" style="stop-color:#40879d;stop-opacity:1"/><stop offset="1" style="stop-color:#98ddf0;stop-opacity:1"/></linearGradient></defs></svg>